<?xml version="1.0" encoding="UTF-8"?>
<svg width="34px" height="34px" viewBox="0 0 34 34" version="1.1" xmlns="http://www.w3.org/2000/svg" xmlns:xlink="http://www.w3.org/1999/xlink">
    <!-- Generator: Sketch 51.2 (57519) - http://www.bohemiancoding.com/sketch -->
    <title>add@2x</title>
    <desc>Created with Sketch.</desc>
    <defs></defs>
    <g id="小岛旅行商城" stroke="none" stroke-width="1" fill="none" fill-rule="evenodd">
        <g id="确认订单1" transform="translate(-663.000000, -1205.000000)" fill="#F2AF00" fill-rule="nonzero">
            <g id="add" transform="translate(663.000000, 1205.000000)">
                <path d="M26.0450312,32.5217391 C24.9983248,32.5217391 23.9516184,32.310559 23.1142532,31.8881988 C22.2768881,31.4658385 21.4395229,31.0434783 20.6021578,30.1987578 C19.974134,29.5652174 19.5554514,28.7204969 19.1367688,27.8757764 C18.7180863,27.0310559 18.508745,25.9751553 18.508745,24.9192547 C18.508745,23.8633541 18.7180863,22.8074534 19.1367688,21.9627329 C19.5554514,21.1180124 19.974134,20.2732919 20.8114991,19.4285714 C21.4395229,18.7950311 22.2768881,18.1614907 23.3235945,17.7391304 C24.1609596,17.3167702 25.2076661,17.1055901 26.2543725,17.1055901 C27.3010789,17.1055901 28.3477853,17.3167702 29.1851505,17.7391304 C30.0225156,18.1614907 30.8598808,18.583851 31.6972459,19.4285714 C32.3252697,20.0621118 32.9532936,20.9068323 33.3719762,21.9627329 C33.7906587,22.8074534 34,23.8633541 34,24.9192547 C34,25.9751553 33.7906587,27.0310559 33.3719762,27.8757764 C32.9532936,28.7204969 32.534611,29.5652174 31.6972459,30.4099379 C31.069222,31.0434782 30.2318569,31.6770186 29.1851505,32.0993789 C28.1384441,32.310559 27.0917377,32.5217391 26.0450312,32.5217391 Z M29.8131743,23.6521739 L27.0917376,23.6521739 L27.0917376,21.1180124 C27.0917376,20.6956522 26.8823963,20.4844721 26.673055,20.2732919 C26.4637138,20.0621118 26.2543725,19.8509317 25.8356899,19.8509317 C25.4170074,19.8509317 25.2076661,20.0621118 24.9983248,20.2732919 C24.7889835,20.484472 24.7889835,20.9068323 24.7889835,21.1180124 L24.7889835,23.6521739 L22.2768881,23.6521739 C21.8582055,23.6521739 21.6488643,23.863354 21.4395229,24.0745342 C21.2301817,24.2857143 21.2301817,24.4968944 21.2301817,24.9192547 C21.2301817,25.3416149 21.4395229,25.552795 21.6488643,25.7639752 C21.8582055,25.9751553 22.2768881,25.9751553 22.4862294,25.9751553 L24.9983248,25.9751553 L24.9983248,28.7204969 C24.9983248,29.1428572 24.9983248,29.3540373 25.2076661,29.5652174 C25.4170073,29.7763975 25.6263486,29.9875777 26.0450312,29.9875777 C26.4637138,29.9875777 26.673055,29.7763975 26.8823963,29.5652174 C27.0917376,29.3540373 27.3010789,28.931677 27.3010789,28.7204969 L27.3010789,25.9751553 L30.0225156,25.9751553 C30.4411982,25.9751553 30.6505395,25.9751553 30.8598807,25.7639752 C31.069222,25.5527951 31.2785633,25.3416149 31.2785633,24.9192547 C31.2785633,24.4968944 31.069222,24.2857143 30.8598807,24.0745342 C30.4411982,23.6521739 30.2318569,23.6521739 29.8131743,23.6521739 Z M20.8114991,14.3602484 C20.8114991,14.7826087 20.6021578,15.2049689 20.6021578,15.4161491 C20.6021578,15.6273292 20.3928165,16.0496894 20.1834752,16.2608696 L19.5554514,16.8944099 C19.3461101,17.1055901 19.1367688,17.3167702 19.1367688,17.5279503 C19.1367688,17.7391304 18.9274276,17.9503106 18.9274276,18.1614907 C18.9274276,18.3726708 18.7180863,18.5838509 18.7180863,18.7950311 C18.7180863,19.0062112 18.508745,19.2173913 18.2994037,19.4285714 C17.6713798,20.2732919 17.2526973,20.9068323 17.043356,21.5403727 C16.8340147,22.173913 16.6246734,22.8074534 16.4153321,23.6521739 C16.2059909,24.2857143 16.2059909,24.9192547 16.4153321,25.552795 C16.4153321,26.1863354 16.6246734,26.8198758 16.6246734,27.4534161 C16.6246734,27.8757764 16.8340147,28.2981366 17.043356,28.931677 C17.2526973,29.3540373 17.4620386,29.9875776 17.8807211,30.4099379 C18.2994037,30.8322981 18.7180863,31.4658385 19.3461101,31.8881988 C19.974134,32.310559 20.6021578,32.9440994 21.6488643,33.3664596 C21.0208404,33.5776397 20.3928165,33.5776397 19.5554514,33.7888199 C18.9274276,33.7888199 18.0900624,34 17.043356,34 L11.3911413,34 C10.5537762,34 9.71641104,33.7888199 8.66970463,33.7888199 C7.83233949,33.7888199 6.78563307,33.5776398 5.94826793,33.5776397 C5.11090279,33.5776397 4.27353764,33.3664596 3.43617253,33.1552795 C2.80814869,32.9440994 2.18012482,32.9440994 1.55210098,32.7329192 C1.13341841,32.5217391 0.714735834,32.5217391 0.505394532,32.310559 C0.296053262,32.0993789 0.08671196,31.4658385 0.0867119929,30.621118 C-0.122629276,29.7763975 0.0867119929,28.5093168 0.296053262,27.0310559 C0.505394532,26.1863354 0.714735834,25.552795 1.34275967,25.1304348 C1.97078352,24.7080745 2.59880739,24.2857143 3.22683123,24.0745342 C3.85485507,23.8633541 4.69222022,23.6521739 5.52958536,23.4409938 C6.3669505,23.2298137 6.99497434,23.0186335 7.62299822,22.5962733 C8.04168079,22.3850932 8.46036336,21.9627329 8.66970463,21.7515528 C8.8790459,21.5403727 9.0883872,21.1180124 9.0883872,20.9068323 C9.0883872,20.6956522 9.29772847,20.2732919 9.29772847,20.0621118 L9.29772847,19.0062112 C9.29772847,18.5838509 9.0883872,18.1614907 8.66970463,17.7391304 C8.66970463,17.5279503 8.25102206,17.3167702 7.83233949,16.8944099 C7.62299822,16.6832298 7.62299822,16.4720497 7.41365691,16.2608696 C7.20431565,15.8385093 7.20431565,15.6273292 6.99497434,15.4161491 C6.99497434,14.9937888 6.78563307,14.7826087 6.78563307,14.3602484 C6.5762918,14.1490683 6.3669505,14.1490683 6.15760923,14.1490683 C5.94826796,14.1490683 5.94826796,13.9378882 5.73892666,13.7267081 C5.73892666,13.515528 5.52958539,13.0931677 5.52958536,12.6708075 C5.32024409,12.2484472 5.32024409,12.0372671 5.32024409,11.6149068 C5.32024409,11.1925466 5.52958536,10.9813665 5.52958536,10.7701863 C5.52958536,10.5590062 5.73892663,10.3478261 5.94826793,10.1366459 C5.94826793,9.29192544 5.94826793,8.44720494 6.15760923,7.60248447 C6.15760923,6.96894411 6.3669505,6.1242236 6.57629177,5.2795031 C6.78563304,4.4347826 7.20431561,3.80124223 7.62299822,3.16770187 C8.04168079,2.53416151 8.46036336,2.11180126 9.0883872,1.68944101 C9.50706977,1.26708076 10.1350936,1.05590065 10.7631175,0.844720504 C11.3911413,0.633540395 11.8098239,0.422360252 12.4378477,0.422360252 C12.647189,0 13.2752129,0 13.6938955,0 C14.3219193,0 14.9499432,0 15.577967,0.211180109 C16.2059909,0.422360219 16.6246734,0.633540361 17.2526973,0.844720504 C17.6713798,1.05590061 18.2994037,1.47826087 18.508745,1.68944101 C18.9274276,1.90062112 19.1367688,2.32298137 19.5554514,2.74534162 C20.1834752,3.37888198 20.6021578,4.22360249 20.8114991,5.06832299 L21.4395229,7.60248447 C21.6488642,8.44720497 21.6488642,9.50310559 21.6488643,10.3478261 L22.0675468,10.7701863 C22.0675468,10.9813665 22.2768881,11.1925466 22.2768881,11.4037267 L22.2768881,12.2484472 C22.2768881,12.6708075 22.0675468,13.0931677 22.0675468,13.3043478 C21.8582056,13.5155279 21.8582056,13.7267081 21.6488643,13.9378882 C21.2301817,14.1490683 21.0208404,14.1490683 20.8114991,14.3602484 Z" id="Shape"></path>
            </g>
        </g>
    </g>
</svg>