<?xml version="1.0" encoding="UTF-8"?>
<svg width="30px" height="30px" viewBox="0 0 30 30" version="1.1" xmlns="http://www.w3.org/2000/svg" xmlns:xlink="http://www.w3.org/1999/xlink">
    <!-- Generator: Sketch 51.2 (57519) - http://www.bohemiancoding.com/sketch -->
    <title>birthday@2x</title>
    <desc>Created with Sketch.</desc>
    <defs></defs>
    <g id="小岛旅行商城" stroke="none" stroke-width="1" fill="none" fill-rule="evenodd">
        <g id="首页" transform="translate(-30.000000, -699.000000)" fill="#F2AF00" fill-rule="nonzero">
            <g id="birthday" transform="translate(30.000000, 699.000000)">
                <path d="M28.9534472,24.3495054 L27.2092492,24.3495054 L27.2092492,15.3709379 C27.2092492,13.4134515 25.4882321,11.82164 23.3720478,11.82164 L21.5574196,11.82164 C21.596851,11.7117025 21.6278499,11.5970992 21.6278499,11.4736409 L21.6278499,6.81468212 C21.6278499,6.23832777 21.1591116,5.77068483 20.5813311,5.77068483 C20.0035847,5.77068483 19.5348123,6.23829372 19.5348123,6.81468212 L19.5348123,11.4736409 C19.5348123,11.5970992 19.5658112,11.7117025 19.6052426,11.82164 L15.9760886,11.8216399 C16.01552,11.7117025 16.0465188,11.5970991 16.0465188,11.4736408 L16.0465188,6.81468209 C16.0465188,6.23832773 15.5777806,5.7706848 15.0000001,5.7706848 C14.4222195,5.7706848 13.9534813,6.23829369 13.9534813,6.81468209 L13.9534813,11.4736408 C13.9534813,11.5970991 13.9844801,11.7117025 14.0239115,11.8216399 L10.3946892,11.8216399 C10.4341206,11.7117025 10.4651195,11.5970991 10.4651195,11.4736408 L10.4651195,6.81468209 C10.4651195,6.23832773 9.99638119,5.7706848 9.41860069,5.7706848 C8.84082018,5.7706848 8.37208191,6.23829369 8.37208191,6.81468209 L8.37208191,11.4736408 C8.37208191,11.5970991 8.40308077,11.7117025 8.44251215,11.8216399 L6.97129535,11.8216399 C4.85511107,11.8216399 3.13409396,13.4134514 3.13409396,15.3709378 L3.13409396,24.3495053 L1.04651877,24.3495053 C0.468772393,24.3495053 0,24.8171142 0,25.3935026 C0,25.969857 0.468738263,26.4374999 1.04651877,26.4374999 L16.3953243,26.4374999 C16.9730707,26.4374999 17.4418431,25.969891 17.4418431,25.3935026 C17.4418431,24.8171483 16.9731048,24.3495053 16.3953243,24.3495053 L5.22713147,24.3495054 L5.22713147,19.6936806 C5.64547952,20.0488999 6.19758697,20.3679161 7.01765702,20.3679161 C8.28219202,20.3679161 8.94989652,19.6216151 9.3913913,19.1281906 C9.78382732,18.6891219 9.90645717,18.5871539 10.2035068,18.5871539 C10.5019562,18.5871539 10.6245861,18.6904501 11.017022,19.1295529 C11.4585168,19.6230115 12.1262213,20.3679162 13.3921219,20.3679162 C14.6580225,20.3679162 15.325727,19.6216151 15.7685873,19.1281907 C16.1610234,18.6904842 16.2836532,18.5871539 16.5820684,18.5871539 C16.8818493,18.5871539 17.0031135,18.6904502 17.3969151,19.129553 C17.8397755,19.6230115 18.5061144,20.3679162 19.772015,20.3679162 C21.0392811,20.3679162 21.7083171,19.6229775 22.1498119,19.129553 C22.544979,18.6904842 22.6676089,18.5871539 22.9673897,18.5871539 C23.2685361,18.5871539 23.391166,18.6904502 23.7863332,19.129553 C24.0831438,19.4613067 24.5014577,19.8911458 25.1162798,20.1474623 L25.1162798,24.3495054 L21.9767577,24.3495054 C21.3990113,24.3495054 20.9302389,24.8171143 20.9302389,25.3935027 C20.9302389,25.9698571 21.3989771,26.4375 21.9767577,26.4375 L28.9534812,26.4375 C29.5312276,26.4375 30,25.9698911 30,25.3935027 C29.9999659,24.8171142 29.5312277,24.3495054 28.9534472,24.3495054 Z M22.9673557,16.4991933 C21.7014551,16.4991933 21.0324191,17.244132 20.5909243,17.7375565 C20.1957572,18.1766253 20.0731273,18.2799556 19.7719809,18.2799556 C19.4735657,18.2799556 19.3509358,18.1766593 18.9584998,17.7389188 C18.5156394,17.2454603 17.8479349,16.4991933 16.5820344,16.4991933 C15.3161338,16.4991933 14.6497949,17.2441321 14.2069345,17.7375566 C13.8131329,18.1766253 13.6918345,18.2799556 13.3920878,18.2799556 C13.0936726,18.2799556 12.9710428,18.1766594 12.5786067,17.7375566 C12.137112,17.244098 11.4694075,16.4991933 10.2035069,16.4991933 C8.93900604,16.4991933 8.27130151,17.2454944 7.82980673,17.7389188 C7.43737071,18.1779876 7.31474086,18.2799556 7.01765709,18.2799556 C6.72197303,18.2799556 6.60067462,18.1779876 6.20823861,17.7389188 C5.97055791,17.4723852 5.65551666,17.1406996 5.2271315,16.8841448 L5.2271315,15.3709379 C5.2271315,14.5784209 6.02562527,13.9096346 6.97132948,13.9096346 L23.372082,13.9096346 C24.3177521,13.9096346 25.11628,14.5784549 25.11628,15.3709379 L25.11628,17.495374 C24.6759459,17.0311367 24.0435077,16.4991933 22.9673557,16.4991933 Z M8.67869065,4.76885067 C8.48382116,4.57308841 8.37208188,4.30938151 8.37208188,4.03072341 C8.37208188,3.7520653 8.48382116,3.48699612 8.67869065,3.29259614 C9.08338282,2.90246795 9.76744025,2.90246795 10.1585107,3.29259614 C10.3533801,3.48699612 10.4651194,3.76565422 10.4651194,4.03072341 C10.4651194,4.2944303 10.3533801,4.57312249 10.1585107,4.76885067 C9.96227558,4.96325065 9.68294446,5.0747207 9.41860065,5.0747207 C9.15289127,5.07468662 8.87356014,4.96321657 8.67869065,4.76885067 Z M14.26009,4.76885067 C14.0652205,4.57308841 13.9534812,4.30938151 13.9534812,4.03072341 C13.9534812,3.7520653 14.0652205,3.48699612 14.26009,3.29259614 C14.6647822,2.90246795 15.3488396,2.90246795 15.73991,3.29259614 C15.9347795,3.48699612 16.0465188,3.76565422 16.0465188,4.03072341 C16.0465188,4.2944303 15.9347795,4.57312249 15.73991,4.76885067 C15.5436749,4.96325065 15.2643438,5.0747207 15,5.0747207 C14.7342906,5.07468662 14.4549253,4.96321657 14.26009,4.76885067 Z M19.8414552,4.76885067 C19.6465857,4.57308841 19.5348464,4.30938151 19.5348464,4.03072341 C19.5348464,3.7520653 19.6465857,3.48699612 19.8414552,3.29259614 C20.2461474,2.90246795 20.9302048,2.90246795 21.3212752,3.29259614 C21.5161447,3.48699612 21.627884,3.76565422 21.627884,4.03072341 C21.627884,4.2944303 21.5161447,4.57312249 21.3212752,4.76885067 C21.1250401,4.96325065 20.845709,5.0747207 20.5813652,5.0747207 C20.3156558,5.07468662 20.0363247,4.96321657 19.8414552,4.76885067 Z" id="Shape"></path>
            </g>
        </g>
    </g>
</svg>