<?xml version="1.0" encoding="UTF-8"?>
<svg width="30px" height="30px" viewBox="0 0 30 30" version="1.1" xmlns="http://www.w3.org/2000/svg" xmlns:xlink="http://www.w3.org/1999/xlink">
    <!-- Generator: Sketch 51.2 (57519) - http://www.bohemiancoding.com/sketch -->
    <title>breakfast@2x</title>
    <desc>Created with Sketch.</desc>
    <defs></defs>
    <g id="小岛旅行商城" stroke="none" stroke-width="1" fill="none" fill-rule="evenodd">
        <g id="首页" transform="translate(-280.000000, -702.000000)" fill="#F2AF00">
            <g id="breakfast" transform="translate(280.000000, 702.000000)">
                <path d="M4.93993308,29 L24.7945298,29 L24.7945298,26.6271186 L4.93993308,26.6271186 L4.93993308,29 Z M6.45178798,8.18745763 L3.7123379,5.50277966 L2,7.18040678 L4.73945008,9.86555932 L6.45178798,8.18745763 Z M27.6666667,7.18040678 L25.9543288,5.50277966 L23.2148787,8.18745763 L24.9272166,9.86555932 L27.6666667,7.18040678 Z M13.6565853,4.79661017 L16.0778776,4.79661017 L16.0778776,1 L13.6565853,1 L13.6565853,4.79661017 Z M16.0778776,12.663661 L16.0778776,10.4915254 L18.9834283,10.4915254 L18.9834283,8.11864407 L10.7510346,8.11864407 L10.7510346,10.4915254 L13.6565853,10.4915254 L13.6565853,12.663661 C8.32974227,13.0015593 6.81595034,15.4418305 5.73411695,16.9448136 C4.48182459,18.6822373 3.48715772,18.7781017 2.51864081,19.0851525 L2.51864081,24.7288136 L4.93993308,24.7288136 L4.93993308,21.6834576 L4.93993308,21.3014237 L4.93993308,20.7670508 C8.81400073,18.8658983 7.66049709,14.9943051 14.8672314,14.9943051 C22.0681547,14.9943051 20.9204621,18.8502373 24.7945298,20.7670508 L24.7945298,22.3559322 L6.87696691,22.3559322 L6.87696691,24.7288136 L27.215822,24.7288136 L27.215822,19.0851525 L26.3417355,18.8374237 C23.3083406,17.9884068 23.8260129,13.1695593 16.0778776,12.663661 L16.0778776,12.663661 Z" id="Fill-91"></path>
            </g>
        </g>
    </g>
</svg>