<?xml version="1.0" encoding="UTF-8"?>
<svg width="30px" height="30px" viewBox="0 0 30 30" version="1.1" xmlns="http://www.w3.org/2000/svg" xmlns:xlink="http://www.w3.org/1999/xlink">
    <!-- Generator: Sketch 51.2 (57519) - http://www.bohemiancoding.com/sketch -->
    <title>card9@2x</title>
    <desc>Created with Sketch.</desc>
    <defs></defs>
    <g id="小岛旅行商城" stroke="none" stroke-width="1" fill="none" fill-rule="evenodd">
        <g id="首页" transform="translate(-280.000000, -752.000000)" fill="#F2AF00">
            <g id="card9" transform="translate(280.000000, 752.000000)">
                <path d="M26.5,11.7435897 L3.5,11.7435897 L3.5,10.0635897 C3.5,9.14030769 4.2405,8.39316239 5.2055,8.39316239 L24.7065,8.39316239 C25.671,8.39316239 26.5,9.14030769 26.5,10.0635897 L26.5,11.7435897 Z M26.5,20.5935043 C26.5,21.517265 25.671,22.2735043 24.7065,22.2735043 L5.2055,22.2735043 C4.2405,22.2735043 3.5,21.517265 3.5,20.5935043 L3.5,14.1367521 L26.5,14.1367521 L26.5,20.5935043 Z M24.75,6 L5.25,6 C2.903,6 1,7.82167521 1,10.0683761 L1,20.5982906 C1,22.8449915 2.903,24.6666667 5.25,24.6666667 L24.75,24.6666667 C27.097,24.6666667 29,22.8449915 29,20.5982906 L29,10.0683761 C29,7.82167521 27.097,6 24.75,6 L24.75,6 Z M6.5,19.4017094 L11,19.4017094 L11,17.008547 L6.5,17.008547 L6.5,19.4017094 Z" id="Fill-31"></path>
            </g>
        </g>
    </g>
</svg>