<?xml version="1.0" encoding="UTF-8"?>
<svg width="29px" height="29px" viewBox="0 0 29 29" version="1.1" xmlns="http://www.w3.org/2000/svg" xmlns:xlink="http://www.w3.org/1999/xlink">
    <!-- Generator: Sketch 51.2 (57519) - http://www.bohemiancoding.com/sketch -->
    <title>discount@2x</title>
    <desc>Created with Sketch.</desc>
    <defs></defs>
    <g id="小岛旅行商城" stroke="none" stroke-width="1" fill="none" fill-rule="evenodd">
        <g id="首页" transform="translate(-281.000000, -600.000000)" fill="#F2AF00">
            <g id="discount" transform="translate(280.000000, 599.000000)">
                <path d="M15.6282121,26.5058339 L4.38841801,15.2660398 L16.2078792,3.45472273 L26.6629668,4.07463124 L27.4409664,14.7017027 L15.6282121,26.5058339 Z M28.8987574,1.80722244 L15.2756211,1 L1,15.2655608 L15.627733,29.8923356 L29.910061,15.620547 L28.8987574,1.80722244 Z M20.037994,12.5195673 L18.9720771,11.4541295 L18.1121577,12.3140489 C16.8316202,11.4632317 15.5688081,11.5470678 14.7179909,12.3978851 C13.7732772,13.3425988 14.0166415,14.5393001 14.6993074,15.8768461 C15.1855571,16.7932951 15.2789746,17.2421779 14.989141,17.5320115 C14.6902052,17.8309472 14.2317412,17.6345311 13.7550727,17.1578627 C13.1193551,16.522145 12.7447273,15.7364805 12.5296276,15.1098651 L10.9218896,16.1015271 C11.0991432,16.6529294 11.5576072,17.4663797 12.1842226,18.1485665 L11.3142429,19.0185463 L12.3806388,20.0844632 L13.3344547,19.1306472 C14.6523592,20.0566775 15.9894261,19.9531997 16.8589269,19.083699 C17.7102232,18.2328817 17.8132219,17.2699636 17.0184551,15.7086948 C16.5130428,14.6422988 16.3731562,14.1469469 16.6069393,13.9131638 C16.8124577,13.7071664 17.1770252,13.6793807 17.7289067,14.230783 C18.4393582,14.9417137 18.6726623,15.605217 18.8230883,15.9606823 L20.3656736,15.0159686 C20.1788388,14.5488814 19.8698426,13.9783164 19.2523294,13.3047528 L20.037994,12.5195673 Z M22.0055089,6.74876517 C20.8145564,6.74876517 19.8497219,7.71407866 19.8497219,8.90455212 C19.8497219,10.0955046 20.8145564,11.0603391 22.0055089,11.0603391 C23.1959823,11.0603391 24.1612958,10.0955046 24.1612958,8.90455212 C24.1612958,7.71407866 23.1959823,6.74876517 22.0055089,6.74876517 L22.0055089,6.74876517 Z" id="Fill-52"></path>
            </g>
        </g>
    </g>
</svg>