<?xml version="1.0" encoding="UTF-8"?>
<svg width="30px" height="30px" viewBox="0 0 30 30" version="1.1" xmlns="http://www.w3.org/2000/svg" xmlns:xlink="http://www.w3.org/1999/xlink">
    <!-- Generator: Sketch 51.2 (57519) - http://www.bohemiancoding.com/sketch -->
    <title>gift_bag@2x</title>
    <desc>Created with Sketch.</desc>
    <defs></defs>
    <g id="小岛旅行商城" stroke="none" stroke-width="1" fill="none" fill-rule="evenodd">
        <g id="首页" transform="translate(-30.000000, -749.000000)" fill="#F2AF00" fill-rule="nonzero">
            <g id="gift_bag" transform="translate(30.000000, 749.000000)">
                <path d="M27.0593056,10.0625 L19.4344444,10.0625 C20.8788889,9.036625 22.2565278,7.702625 22.4244444,6.2326875 C22.5255556,5.5149375 22.3576389,4.4890625 21.1479167,3.5646875 C20.47625,3.05175 19.8045833,2.7780625 19.1329167,2.7780625 C17.0168056,2.7780625 15.8413889,5.3083125 15.1697222,7.5993125 C14.3951389,4.693875 12.9163889,1 10.3651389,1 C9.59236111,1 8.85208333,1.308125 8.11361111,1.9225625 C6.70347222,3.1550625 6.56805556,4.454625 6.70347222,5.3083125 C7.005,7.224125 8.95319444,8.86625 10.8688889,10.0625 L2.94069444,10.0625 C2.40263889,10.0625 2,10.472125 2,10.9524375 L2,19.125 C2,19.6379375 2.40263889,20.0475625 2.94069444,20.0475625 L3.84708333,20.0475625 L3.84708333,29.1100625 C3.84708333,29.590375 4.28402778,30 4.78777778,30 L25.2122222,30 C25.7159722,30 26.1529167,29.590375 26.1529167,29.1100625 L26.1529167,20.0475625 L27.0593056,20.0475625 C27.5630556,20.0475625 28,19.6379375 28,19.125 L28,10.9524375 C28,10.472125 27.5630556,10.0625 27.0593056,10.0625 Z M9.01930422,4.87032419 C8.98216403,4.65897756 8.90983838,4.19887781 9.78165562,3.45822943 C10.0357727,3.24688279 10.3993557,3 10.7277532,3 C12.0002936,3 13.2728341,6.03553616 14,9 C11.6738509,7.83478803 9.23628116,6.17581047 9.01930422,4.87032419 Z M14,27.1162 C14,27.5932 13.570922,28 13.0762411,28 L6.89007092,28 C6.39539007,28 6,27.5914 6,27.1162 L6,19.9162 C6,19.4068 6.39539007,19 6.89007092,19 L13.0744681,19 C13.5691489,19 13.998227,19.4068 13.998227,19.9162 L13.998227,27.1162 L14,27.1162 Z M14,16.1833333 C14,16.6233333 13.564278,17 13.0619373,17 L4.93806266,17 C4.435722,17 4,16.6233333 4,16.1833333 L4,12.85 C4,12.3766667 4.435722,12 4.93806266,12 L13.0619373,12 C13.564278,12 14,12.3766667 14,12.8483333 L14,16.1833333 Z M18.9124474,5 C19.0924424,5 19.330293,5.10155902 19.6002856,5.33674833 C20.0181312,5.70556793 20.0181312,5.90868597 19.9892035,6.00846325 C19.9297408,6.78173719 18.5540644,7.99153675 17,9 C17.4483805,6.84766147 18.1956814,5 18.9124474,5 Z M24,27.1162 C24,27.5914 23.6046099,28 23.1099291,28 L16.9237589,28 C16.429078,28 16,27.5914 16,27.1162 L16,19.9162 C16,19.4068 16.429078,19 16.9237589,19 L23.108156,19 C23.6028369,19 23.998227,19.4068 23.998227,19.9162 L23.998227,27.1162 L24,27.1162 Z M26,16.1833333 C26,16.6233333 25.564278,17 25.0619373,17 L16.9380627,17 C16.435722,17 16,16.6233333 16,16.1833333 L16,12.85 C16,12.3766667 16.435722,12 16.9380627,12 L25.0619373,12 C25.564278,12 26,12.3766667 26,12.8483333 L26,16.1833333 Z" id="Shape"></path>
            </g>
        </g>
    </g>
</svg>