<?xml version="1.0" encoding="UTF-8"?>
<svg width="40px" height="40px" viewBox="0 0 40 40" version="1.1" xmlns="http://www.w3.org/2000/svg" xmlns:xlink="http://www.w3.org/1999/xlink">
    <!-- Generator: Sketch 52.6 (67491) - http://www.bohemiancoding.com/sketch -->
    <title>data report@3x</title>
    <desc>Created with Sketch.</desc>
    <g id="大数据" stroke="none" stroke-width="1" fill="none" fill-rule="evenodd">
        <g id="首页1" transform="translate(-696.000000, -2078.000000)" fill="#57576B">
            <g id="Group-2" transform="translate(0.000000, 2068.000000)">
                <g id="data-report" transform="translate(696.000000, 10.000000)">
                    <path d="M36,35 L5,35 L5,16.5609756 L16.0222222,16.5609756 L16.0222222,13.1463415 L5.89004444,13.1463415 L10.4449778,7 L18.7777778,7 L18.7777778,16.5609756 L22.2222222,16.5609756 L22.2222222,7 L30.4937111,7 L35.0486444,13.1463415 L24.9777778,13.1463415 L24.9777778,16.5609756 L36,16.5609756 L36,35 Z M31.7717091,3 L8.1668,3 L1,12.7107843 L1,38 L39,38 L39,12.7107843 L31.7717091,3 Z M13,25.4344894 L15.4769109,27.8758298 L18.7871165,24.6080514 L18.7871165,31 L22.2678795,31 L22.2678795,24.6080514 L25.5467582,27.8758298 L28,25.4344894 L20.5003481,18 L13,25.4344894 Z" id="Fill-110"></path>
                </g>
            </g>
        </g>
    </g>
</svg>