<?xml version="1.0" encoding="UTF-8"?>
<svg width="40px" height="40px" viewBox="0 0 40 40" version="1.1" xmlns="http://www.w3.org/2000/svg" xmlns:xlink="http://www.w3.org/1999/xlink">
    <!-- Generator: Sketch 52.6 (67491) - http://www.bohemiancoding.com/sketch -->
    <title>data@3x</title>
    <desc>Created with Sketch.</desc>
    <g id="大数据" stroke="none" stroke-width="1" fill="none" fill-rule="evenodd">
        <g id="首页" transform="translate(-355.000000, -1246.000000)" fill="#565D64">
            <g id="data" transform="translate(355.000000, 1246.000000)">
                <path d="M0,4 L0,24.09775 L3.7037037,20.347 L3.7037037,7.75 L36.2962963,7.75 L36.2962963,33.25 L3.7037037,33.25 L3.7037037,29.8825 C11.8518519,21.54325 3.60518519,29.95675 11.8274074,21.6325 L18.5059259,28.3825 L28.8888889,17.8825 L28.8888889,23.5 L32.5925926,23.5 L32.5925926,11.5 L20.7407407,11.5 L20.7407407,15.25 L26.2214815,15.25 L18.4814815,23.089 L11.8325926,16.3345 C4.17703704,24.085 4.44444444,23.6695 0,28.33975 L0,37 L40,37 L40,4 L0,4 Z" id="Fill-59"></path>
            </g>
        </g>
    </g>
</svg>