<?xml version="1.0" encoding="UTF-8"?>
<svg width="40px" height="40px" viewBox="0 0 40 40" version="1.1" xmlns="http://www.w3.org/2000/svg" xmlns:xlink="http://www.w3.org/1999/xlink">
    <!-- Generator: Sketch 52.6 (67491) - http://www.bohemiancoding.com/sketch -->
    <title>company@3x</title>
    <desc>Created with Sketch.</desc>
    <g id="大数据" stroke="none" stroke-width="1" fill="none" fill-rule="evenodd">
        <g id="首页" transform="translate(-605.000000, -1246.000000)" fill="#565D64">
            <g id="company" transform="translate(605.000000, 1246.000000)">
                <path d="M5,36 L9,36 L9,24 L5,24 L5,36 Z M2,39 L12,39 L12,20 L2,20 L2,39 Z M18,35 L22,35 L22,29 L18,29 L18,35 Z M15,39 L25,39 L25,26 L15,26 L15,39 Z M31,35 L35,35 L35,20 L31,20 L31,35 Z M28,39 L38,39 L38,16 L28,16 L28,39 Z M6.0753948,14.5483871 C6.93054848,14.5483871 7.72253354,14.284871 8.37799287,13.8364194 L15.5961963,18.1556452 C15.7116658,20.2969677 17.4844626,22 19.6607234,22 C22.1290542,22 24.0947529,19.8038065 23.677025,17.2722903 L32.8622856,8.98474194 C33.2019019,9.07619355 33.5564612,9.12903226 33.9246052,9.12903226 C36.1755816,9.12903226 38,7.30948387 38,5.06451613 C38,2.82022581 36.1755816,1 33.9246052,1 C31.674308,1 29.8492104,2.82022581 29.8492104,5.06451613 C29.8492104,5.68096774 29.9904907,6.26287097 30.2370521,6.78583871 L21.7452878,14.448129 C20.1626762,13.5044839 18.1915436,13.7436129 16.8772287,14.9724516 L10.1249788,10.9323226 C10.3925964,8.49564516 8.47987774,6.41935484 6.0753948,6.41935484 C3.82509764,6.41935484 2,8.23958065 2,10.483871 C2,12.7281613 3.82509764,14.5483871 6.0753948,14.5483871 L6.0753948,14.5483871 Z" id="Fill-58"></path>
            </g>
        </g>
    </g>
</svg>