<?xml version="1.0" encoding="UTF-8"?>
<svg width="40px" height="40px" viewBox="0 0 40 40" version="1.1" xmlns="http://www.w3.org/2000/svg" xmlns:xlink="http://www.w3.org/1999/xlink">
    <!-- Generator: Sketch 52.6 (67491) - http://www.bohemiancoding.com/sketch -->
    <title>icon-radio@2x</title>
    <desc>Created with Sketch.</desc>
    <g id="Page-1" stroke="none" stroke-width="1" fill="none" fill-rule="evenodd">
        <g id="报修系统pc2" transform="translate(-405.000000, -576.000000)" fill="#0039E3">
            <g id="icon-radio" transform="translate(405.000000, 576.000000)">
                <path d="M19.953271,0.0155763084 C8.94193145,0.0155763084 0.0155763084,8.94205607 0.0155763084,19.953271 C0.0155763084,30.964486 8.94193145,39.8909657 19.953271,39.8909657 C30.964486,39.8909657 39.8909657,30.964486 39.8909657,19.953271 C39.8909657,8.94205607 30.964486,0.0155763084 19.953271,0.0155763084 Z M19.953271,37.8971963 C10.0429907,37.8971963 2.00934579,29.8633022 2.00934579,19.953271 C2.00934579,10.0431153 10.0429907,2.00934579 19.953271,2.00934579 C29.8633022,2.00934579 37.8971963,10.0431153 37.8971963,19.953271 C37.8971963,29.8633022 29.8633022,37.8971963 19.953271,37.8971963 Z" id="Shape" fill-rule="nonzero"></path>
                <path d="M8.98753893,19.953271 C8.98753893,26.0094776 13.8970644,30.9190031 19.953271,30.9190031 C26.0094776,30.9190031 30.9190031,26.0094776 30.9190031,19.953271 C30.9190031,13.8970644 26.0094776,8.98753895 19.953271,8.98753895 C13.8970644,8.98753895 8.98753893,13.8970644 8.98753893,19.953271 Z" id="Path"></path>
            </g>
        </g>
    </g>
</svg>