<?xml version="1.0" encoding="UTF-8"?>
<svg width="40px" height="40px" viewBox="0 0 40 40" version="1.1" xmlns="http://www.w3.org/2000/svg" xmlns:xlink="http://www.w3.org/1999/xlink">
    <!-- Generator: Sketch 51.2 (57519) - http://www.bohemiancoding.com/sketch -->
    <title>location@2x</title>
    <desc>Created with Sketch.</desc>
    <defs></defs>
    <g id="小岛旅行商城" stroke="none" stroke-width="1" fill="none" fill-rule="evenodd">
        <g id="首页" transform="translate(-283.000000, -183.000000)" fill="#FFFFFF" fill-rule="nonzero">
            <g id="location" transform="translate(283.000000, 183.000000)">
                <g id="Group-7" transform="translate(4.000000, 0.000000)">
                    <path d="M15.327648,2.85984188 C22.4235512,2.85984188 28.3836127,8.85971384 28.3836127,16.0005122 C28.3836127,20.8569557 21.0018851,30.0018814 15.327648,35.9967493 C9.93674989,30.284611 2.84084668,21.1421873 2.84084668,16.0005122 C2.84084668,8.57198017 8.23423021,2.85984188 15.327648,2.85984188 Z M15.327648,1.96617395e-05 C6.52673966,1.96617395e-05 -3.89149435e-08,7.14332009 0,16.0005122 C0,24.8577043 15.327648,40 15.327648,40 C15.3276479,40 31.2194886,24.8577043 31.2194886,16.0005122 C31.2267603,11.7551116 29.554861,7.68144864 26.5730567,4.67925787 C23.5912525,1.6770671 19.5448806,-0.00663672593 15.327648,1.96617395e-05 Z" id="Shape"></path>
                    <path d="M15.6097561,9.72039006 C18.2113587,9.72039006 20.5219261,12.0342351 20.5219261,14.6341463 C20.5219261,17.2340575 18.4998633,19.5479026 15.6097561,19.5479026 C13.0081535,19.5479026 10.6975861,17.2340576 10.6975861,14.6341463 C10.6975861,12.0342351 13.0081535,9.72039006 15.6097561,9.72039006 Z M15.6097561,6.82934954 C13.5373429,6.81987697 11.5470374,7.639042 10.0813671,9.10471021 C8.61569676,10.5703784 7.79615074,12.5610609 7.80494815,14.6341463 C7.79615073,16.7072317 8.61569674,18.6979142 10.0813671,20.1635825 C11.5470374,21.6292507 13.5373429,22.4484157 15.6097561,22.4389431 C17.6821693,22.4484157 19.6724748,21.6292507 21.1381451,20.1635825 C22.6038155,18.6979142 23.4233615,16.7072317 23.414564,14.6341463 C23.4233615,12.5610609 22.6038154,10.5703784 21.1381451,9.10471021 C19.6724748,7.639042 17.6821693,6.81987697 15.6097561,6.82934954 Z" id="Shape"></path>
                </g>
            </g>
        </g>
    </g>
</svg>