<?xml version="1.0" encoding="UTF-8"?>
<svg width="32px" height="27px" viewBox="0 0 32 27" version="1.1" xmlns="http://www.w3.org/2000/svg" xmlns:xlink="http://www.w3.org/1999/xlink">
    <!-- Generator: Sketch 51.2 (57519) - http://www.bohemiancoding.com/sketch -->
    <title>Shape@2x</title>
    <desc>Created with Sketch.</desc>
    <defs></defs>
    <g id="小岛旅行商城" stroke="none" stroke-width="1" fill="none" fill-rule="evenodd">
        <g id="首页" transform="translate(-30.000000, -542.000000)" fill="#666666" fill-rule="nonzero">
            <g id="member" transform="translate(30.000000, 542.000000)">
                <path d="M0,7.61615976 L0.102356007,7.33243203 C0.444031505,6.30328098 1.57112072,5.74089399 2.61986653,6.07605608 C3.12666075,6.23831878 3.54620306,6.59229135 3.78552255,7.05959082 C4.15168724,7.7639666 4.04595847,8.6156495 3.51859774,9.21351584 C3.45634827,9.28147629 3.39409881,9.34640278 3.32821996,9.42853356 C4.81340856,10.322549 6.29104511,11.2018943 7.75775684,12.088307 C8.31360709,12.4261913 8.87197289,12.7601367 9.43280997,13.0901169 C9.6281369,13.2531291 9.92134727,13.2298213 10.0877491,13.0381114 C10.1199261,13.0010336 10.1457828,12.9591681 10.1643328,12.9141121 C11.860886,9.88198104 13.5556261,6.8488886 15.2485522,3.81483636 C14.5201455,3.51208398 14.0326347,2.82748241 13.9938479,2.05214793 C13.9612934,1.4932946 14.1805596,0.948682984 14.5935764,0.56251487 C15.3842326,-0.198149578 16.6532711,-0.185728235 17.4282732,0.589891794 C17.4731176,0.635093963 17.5158695,0.68222051 17.5564015,0.731131024 C18.3975392,1.74711117 18.0939172,2.9314933 16.7553338,3.82550872 C17.1907501,4.6079819 17.6146917,5.3975224 18.0574401,6.17999558 C19.2774952,8.37360152 20.5027032,10.564487 21.7330546,12.7526347 C22.0148635,13.2622667 22.1976526,13.3089181 22.6987278,13.01102 C24.5984214,11.8729032 26.4967258,10.7325898 28.3936371,9.5900824 L28.67178,9.41789689 C28.2785233,9.0690285 28.0389472,8.58370381 28.0025067,8.06443458 C27.9347581,6.98227867 28.7738794,6.05096354 29.8770294,5.98453791 C30.8093415,5.92849909 31.6577746,6.51323022 31.9197869,7.39353932 C31.9416732,7.46885263 31.9744843,7.5476996 32,7.62326277 L32,8.30886376 C31.6786344,9.32459405 31.0124772,9.91335854 29.879119,9.92046155 C29.8348332,10.0388569 29.7983927,10.150185 29.7582861,10.2795026 L26.4259235,21.486052 C26.279575,21.9739109 26.1076741,22.1032285 25.6030062,22.1032285 L6.42646885,22.1032285 C5.88869655,22.1032285 5.72409108,21.9810139 5.57774252,21.486052 C4.67457416,18.450785 3.7723846,15.4152419 2.87117399,12.3794233 C2.62976486,11.5609354 2.38106029,10.7424831 2.13965115,9.9168922 C1.35236775,9.96607786 0.609663468,9.55535261 0.245075183,8.86871651 C0.151235918,8.68615278 0.0693799852,8.49797983 5.14203792e-13,8.3053301 L5.14203792e-13,7.61615976 Z M15.9907432,24.063195 L24.9518797,24.063195 C25.775347,24.0251814 26.4743153,24.6493895 26.5128821,25.4572408 C26.5482961,26.1905283 26.0248214,26.8360812 25.2883861,26.9668979 C25.1778441,26.9901031 25.0649493,27.0009883 24.9518797,26.9993433 L7.02986338,26.9993433 C6.37048833,27.0186178 5.77618559,26.6119259 5.5668177,25.9977834 C5.34362881,25.3989176 5.56161191,24.7269515 6.09703795,24.3643768 C6.39242655,24.1798651 6.73376508,24.0769826 7.08456079,24.0667286 C10.0583108,24.0449199 13.0245453,24.0667286 15.9907799,24.0667286 L15.9907799,24.063195 L15.9907432,24.063195 Z" id="Shape"></path>
            </g>
        </g>
    </g>
</svg>