<?xml version="1.0" encoding="UTF-8"?>
<svg width="30px" height="30px" viewBox="0 0 30 30" version="1.1" xmlns="http://www.w3.org/2000/svg" xmlns:xlink="http://www.w3.org/1999/xlink">
    <!-- Generator: Sketch 51.2 (57519) - http://www.bohemiancoding.com/sketch -->
    <title>steward@2x</title>
    <desc>Created with Sketch.</desc>
    <defs></defs>
    <g id="小岛旅行商城" stroke="none" stroke-width="1" fill="none" fill-rule="evenodd">
        <g id="首页" transform="translate(-30.000000, -599.000000)" fill="#F2AF00" fill-rule="nonzero" stroke="#F2AF00" stroke-width="0.5">
            <g id="steward" transform="translate(30.000000, 599.000000)">
                <path d="M26.0808049,10.6640516 L23.6735148,9.50766276 C22.944033,9.15679266 22.0686548,9.41376795 21.6309657,10.1056245 L15.1823464,20.4142871 C15.1434407,20.4785309 15.080219,20.5131238 15.0024076,20.5131238 C14.9245962,20.5131238 14.8662376,20.4785309 14.8224687,20.4142871 L8.36898621,10.1105663 C7.93616033,9.41870978 7.05591893,9.16173449 6.32643711,9.5126046 L3.9191471,10.6689934 C3.3598777,10.9358524 3,11.5189886 3,12.1466013 L3,24.2738583 C3,26.3296606 4.64376571,28 6.66686196,28 L23.33309,28 C25.3561863,28 26.999952,26.3296606 26.999952,24.2738583 L26.999952,12.1416595 C27.0048152,11.5140468 26.6400743,10.9358524 26.0808049,10.6640516 Z M23.33309,26.5816941 L6.67172517,26.5816941 C5.41701644,26.5816941 4.4006051,25.5439092 4.4006051,24.2738583 L4.4006051,12.1416595 C4.4006051,12.0625902 4.44923722,11.9835208 4.5221854,11.948928 L6.92947542,10.7925392 C6.95865469,10.7777137 6.98783396,10.7727719 7.02187645,10.7727719 C7.09482463,10.7727719 7.1629096,10.8073647 7.2018153,10.8716085 L13.6552978,21.1753293 C13.9519538,21.6497452 14.4577278,21.9314297 15.0072708,21.9314297 C15.5568138,21.9314297 16.067451,21.6497452 16.364107,21.1753293 L22.8175895,10.8716085 C22.8759481,10.7826556 22.9878019,10.7480627 23.0850662,10.7925392 L25.4923562,11.948928 C25.5653044,11.9835208 25.6139365,12.0576483 25.6139365,12.1416595 L25.6139365,24.2689165 C25.6090733,25.5439092 24.5877987,26.5816941 23.33309,26.5816941 Z M24.5537562,17.0488992 L20.833399,17.0488992 C20.4492052,17.0488992 20.1379596,17.3651764 20.1379596,17.7555812 C20.1379596,18.145986 20.4492052,18.4622633 20.833399,18.4622633 L24.5537562,18.4622633 C24.93795,18.4622633 25.2491956,18.145986 25.2491956,17.7555812 C25.2491956,17.3651764 24.93795,17.0488992 24.5537562,17.0488992 Z M15.0024076,14.2419383 C14.3653268,14.2419383 13.8498263,14.7657726 13.8498263,15.4131526 C13.8498263,16.0605327 14.3653268,16.5843669 15.0024076,16.5843669 C15.6394884,16.5843669 16.1549889,16.0605327 16.1549889,15.4131526 C16.1549889,14.7657726 15.6394884,14.2419383 15.0024076,14.2419383 Z M8.67536858,9.72016156 C8.80667531,10.2341121 9.26381725,10.5948659 9.78418095,10.5948659 C9.86685556,10.5948659 9.94953016,10.5849823 10.0322048,10.5652149 C11.9872161,10.1253918 13.2030191,9.46318627 13.8935952,8.96900302 L16.11122,8.96900302 C16.7969329,9.46318627 18.0127359,10.1253918 19.9677472,10.5652149 C20.0504218,10.5849823 20.1330964,10.5948659 20.215771,10.5948659 C20.7361347,10.5948659 21.1932767,10.2341121 21.3245834,9.72016156 C21.4607533,9.19138548 21.635829,8.25737914 21.7087771,6.78471305 L21.7087771,6.76494572 C21.6406922,5.3318143 21.4607533,4.40274979 21.3245834,3.87397371 C21.1689606,3.26118648 20.5707855,2.89054904 19.962884,3.02892035 C18.0078727,3.46874344 16.7920697,4.130949 16.1063567,4.62513225 L13.888732,4.62513225 C13.1981559,4.130949 11.9872161,3.46874344 10.0273416,3.02892035 C9.42430325,2.89549087 8.82612816,3.26612831 8.67050537,3.87397371 C8.53433543,4.40274979 8.35925979,5.34169796 8.29117482,6.80942222 L8.29117482,6.82918955 C8.364123,8.26232097 8.53919864,9.19138548 8.67536858,9.72016156 Z M9.68691671,6.81930588 C9.74041204,5.71727723 9.86199234,4.95623503 9.96898301,4.46205178 C11.4473995,4.81786372 12.3908627,5.3021633 12.9452688,5.67774257 L12.9452688,7.9163927 C12.3908627,8.28703014 11.4473995,8.77132972 9.96898301,9.13208349 C9.86199234,8.64778391 9.74041204,7.89662537 9.68691671,6.81930588 Z M14.3410107,7.55563892 L14.3410107,6.03849635 L15.585993,6.03849635 L15.585993,7.56058076 L14.3410107,7.56058076 L14.3410107,7.55563892 Z M16.9817349,7.86203254 L16.9817349,5.73210273 C17.5410043,5.34169796 18.4990571,4.83763105 20.0358322,4.46205178 C20.1428228,4.94635136 20.2644031,5.6975099 20.3178985,6.77482939 C20.2644031,7.87191621 20.1428228,8.63790024 20.0358322,9.13208349 C18.4990571,8.75650422 17.5410043,8.25243731 16.9817349,7.86203254 Z M15.0024076,10.9506779 C14.3653268,10.9506779 13.8498263,11.4745121 13.8498263,12.1218922 C13.8498263,12.7692722 14.3653268,13.2931065 15.0024076,13.2931065 C15.6394884,13.2931065 16.1549889,12.7692722 16.1549889,12.1218922 C16.1549889,11.4745121 15.6394884,10.9506779 15.0024076,10.9506779 Z" id="Shape"></path>
            </g>
        </g>
    </g>
</svg>