<?xml version="1.0" encoding="UTF-8"?>
<svg width="30px" height="30px" viewBox="0 0 30 30" version="1.1" xmlns="http://www.w3.org/2000/svg" xmlns:xlink="http://www.w3.org/1999/xlink">
    <!-- Generator: Sketch 51.2 (57519) - http://www.bohemiancoding.com/sketch -->
    <title>tickets@2x</title>
    <desc>Created with Sketch.</desc>
    <defs></defs>
    <g id="小岛旅行商城" stroke="none" stroke-width="1" fill="none" fill-rule="evenodd">
        <g id="首页" transform="translate(-280.000000, -649.000000)" fill="#F2AF00" fill-rule="nonzero">
            <g id="tickets" transform="translate(280.000000, 649.000000)">
                <g id="Group-9">
                    <path d="M27.4583849,25.5333333 L8.77771871,25.5333333 C8.77771871,24.6723969 8.08479469,23.9549499 7.22217497,23.9549499 C6.35955525,23.9549499 5.66663123,24.658048 5.66663123,25.5333333 L2.55554374,25.5333333 C1.70706534,25.5333333 1,24.8302353 1,23.9549499 L1,6.57838342 C1,5.71744701 1.69292403,5 2.55554374,5 L5.66663123,5 C5.66663123,5.86093641 6.35955525,6.57838342 7.22217497,6.57838342 C8.07065338,6.57838342 8.77771871,5.87528535 8.77771871,5 L27.4442436,5 C28.292722,5 28.9997873,5.70309806 28.9997873,6.57838342 L28.9997873,23.9549499 C29.0139286,24.8302353 28.3210046,25.5333333 27.4583849,25.5333333 Z M27.4583849,6.57838342 L9.90902324,6.57838342 C9.3716536,7.51106452 8.36762081,8.15676683 7.22217497,8.15676683 C6.07672913,8.15676683 5.07269635,7.52541346 4.53532668,6.57838342 L2.54140243,6.57838342 L2.54140243,23.9549499 L4.53532668,23.9549499 C5.07269632,23.0222688 6.07672911,22.3765665 7.22217497,22.3765665 C8.36762083,22.3765665 9.3716536,23.0079199 9.90902324,23.9549499 L27.4725262,23.9549499 L27.4725262,6.57838342 L27.4583849,6.57838342 Z M13.8403065,12.1027254 L23.9654821,12.1027254 C24.1776017,12.1027254 24.3472974,12.2749127 24.3472974,12.4901468 L24.3472974,13.2793385 C24.3472974,13.4945726 24.1776017,13.6667599 23.9654821,13.6667598 L13.8403065,13.6667598 C13.6281869,13.6667598 13.4584912,13.4945725 13.4584912,13.2793385 L13.4584912,12.4901468 C13.4584912,12.2749127 13.6281869,12.1027254 13.8403065,12.1027254 Z M13.8403065,16.8522246 L23.9654821,16.8522246 C24.1776017,16.8522246 24.3472974,17.0244118 24.3472974,17.2396459 L24.3472974,18.0288376 C24.3472974,18.2440717 24.1776017,18.416259 23.9654821,18.416259 L13.8403065,18.416259 C13.6281869,18.416259 13.4584912,18.2440717 13.4584912,18.0288376 L13.4584912,17.2396459 C13.4584912,17.0244118 13.6281869,16.8522246 13.8403065,16.8522246 Z M7.61813154,20.7838342 L6.84035968,20.7838342 C6.62824009,20.7838342 6.4585444,20.6116469 6.4585444,20.3964128 L6.4585444,16.4361053 C6.4585444,16.2208712 6.62824009,16.0486839 6.84035968,16.0486839 L7.61813154,16.0486839 C7.83025114,16.0486839 7.99994683,16.2208712 7.99994683,16.4361053 L7.99994683,20.3964128 C7.99994683,20.6116469 7.83025114,20.7838342 7.61813154,20.7838342 Z M7.61813154,14.4703005 L6.84035968,14.4703005 C6.62824009,14.4703005 6.4585444,14.2981132 6.4585444,14.0828791 L6.4585444,10.1225716 C6.4585444,9.90733754 6.62824009,9.73515025 6.84035968,9.73515025 L7.61813154,9.73515025 C7.83025114,9.73515025 7.99994683,9.90733754 7.99994683,10.1225716 L7.99994683,14.0828791 C7.99994683,14.2981132 7.83025114,14.4703005 7.61813154,14.4703005 Z" id="Shape"></path>
                    <path d="M27.3332916,25.5333333 L8.69979287,25.5333333 L8.69979287,25.3918217 C8.69979287,24.6135079 8.06980981,23.9767057 7.29983054,23.9767057 C6.52985126,23.9767057 5.8998682,24.6135079 5.89986818,25.3918217 L5.89986818,25.5333333 L2.67995481,25.5333333 C1.75597967,25.5333333 1,24.7691707 1,23.8351941 L1,6.69813922 C1,5.76416266 1.75597967,5 2.67995481,5 L5.89986818,5 L5.89986818,5.14151161 C5.89986818,5.9198254 6.52985124,6.55662761 7.29983054,6.55662761 C8.06980984,6.55662761 8.69979287,5.9198254 8.69979287,5.14151161 L8.69979287,5 L27.319292,5 C28.2432671,5 28.9992468,5.76416266 28.9992468,6.69813922 L28.9992468,23.8351941 C29.0132464,24.2880312 28.8312513,24.712566 28.5232596,25.0380427 C28.2012683,25.3493682 27.7812796,25.5333333 27.3332916,25.5333333 Z M8.97978533,25.2503101 L27.3472912,25.2503101 C27.7252811,25.2503101 28.0752717,25.1087985 28.3272649,24.8399265 C28.5932577,24.5710544 28.7332539,24.2172754 28.7192543,23.8351941 L28.7192543,6.69813922 C28.7192543,5.91982543 28.0892713,5.28302321 27.319292,5.28302321 L8.9657857,5.28302321 C8.89578759,6.14624399 8.16780717,6.83965083 7.29983054,6.83965083 C6.41785425,6.83965083 5.70387348,6.16039515 5.63387535,5.28302321 L2.67995481,5.28302321 C1.90997554,5.28302321 1.27999248,5.91982543 1.27999248,6.69813922 L1.27999248,23.8493453 C1.27999248,24.6276591 1.90997554,25.2644613 2.67995481,25.2644613 L5.64787498,25.2644613 C5.71787308,24.4012405 6.44585351,23.7078337 7.31383014,23.7078337 C8.1818068,23.6936825 8.90978719,24.3870893 8.97978533,25.2503101 Z M27.4732879,23.9625546 L9.87576124,23.9625546 L9.83376236,23.8917988 C9.30177668,22.9578222 8.34980229,22.4059269 7.29983054,22.4059269 C6.24985879,22.4059269 5.29788439,22.9578222 4.76589869,23.8917988 L4.72389981,23.9625546 L2.52595895,23.9625546 L2.52595895,6.55662761 L4.72389981,6.55662761 L4.76589869,6.62738343 C5.29788437,7.56135999 6.24985876,8.11325525 7.29983054,8.11325523 C8.34980229,8.11325523 9.30177668,7.56135999 9.83376236,6.62738343 L9.87576124,6.55662761 L27.4872875,6.55662761 L27.4872875,23.9625546 L27.4732879,23.9625546 Z M10.0297571,23.6795314 L27.1932954,23.6795314 L27.1932954,6.83965083 L10.0297571,6.83965083 C9.4417729,7.81608088 8.4198004,8.39627844 7.28583091,8.39627844 C6.15186143,8.39627844 5.14388853,7.81608088 4.54190472,6.83965083 L2.80595143,6.83965083 L2.80595143,23.6936825 L4.55590435,23.6936825 C5.14388853,22.7172525 6.16586103,22.1370549 7.29983054,22.1370549 C8.41980042,22.1370549 9.44177292,22.7172525 10.0297571,23.6795314 Z M7.69181998,20.8492993 L6.9218407,20.8492993 C6.6278486,20.8492993 6.40385463,20.6087296 6.40385463,20.3257064 L6.40385463,16.4199862 C6.40385463,16.1228119 6.64184822,15.8963933 6.9218407,15.8963933 L7.69181998,15.8963933 C7.98581208,15.8963933 8.20980605,16.136963 8.20980605,16.4199862 L8.20980605,20.3257064 C8.20980605,20.6087296 7.97181245,20.8492994 7.69181998,20.8492993 Z M6.90784108,16.1794165 C6.76784484,16.1794165 6.66984748,16.2926258 6.66984748,16.4199862 L6.66984748,20.3257064 C6.66984748,20.467218 6.78184446,20.5662761 6.90784108,20.5662761 L7.67782035,20.5662761 C7.81781659,20.5662761 7.91581395,20.4530669 7.91581395,20.3257064 L7.91581395,16.4199862 C7.91581395,16.2784746 7.80381696,16.1794165 7.67782035,16.1794165 L6.90784108,16.1794165 Z M23.8753846,18.5143579 L13.8516543,18.5143579 C13.5576622,18.5143579 13.3336682,18.2737882 13.3336682,17.990765 L13.3336682,17.2124512 C13.3336682,16.9152768 13.5716618,16.6888583 13.8516543,16.6888583 L23.8753846,16.6888583 C24.1693767,16.6888583 24.3933707,16.929428 24.3933707,17.2124512 L24.3933707,17.990765 C24.3933707,18.2879394 24.1553771,18.5143579 23.8753846,18.5143579 Z M13.8516543,16.9718815 C13.711658,16.9718815 13.6136607,17.0850907 13.6136607,17.2124512 L13.6136607,17.990765 C13.6136607,18.1322766 13.7256577,18.2313347 13.8516543,18.2313347 L23.8753846,18.2313347 C24.0153809,18.2313347 24.1133782,18.1181254 24.1133782,17.990765 L24.1133782,17.2124512 C24.1133782,17.0709396 24.0013812,16.9718815 23.8753846,16.9718815 L13.8516543,16.9718815 Z M7.69181998,14.6227889 L6.9218407,14.6227889 C6.6278486,14.6227889 6.40385463,14.3822192 6.40385463,14.099196 L6.40385463,10.1934758 C6.40385463,9.8963014 6.64184822,9.66988284 6.9218407,9.66988284 L7.69181998,9.66988284 C7.98581208,9.66988284 8.20980605,9.91045256 8.20980605,10.1934758 L8.20980605,14.099196 C8.20980605,14.3822192 7.97181245,14.6227889 7.69181998,14.6227889 Z M6.90784108,9.95290605 C6.76784484,9.95290605 6.66984748,10.0661153 6.66984748,10.1934758 L6.66984748,14.099196 C6.66984748,14.2407076 6.78184446,14.3397657 6.90784108,14.3397657 L7.67782035,14.3397657 C7.81781659,14.3397657 7.91581395,14.2265564 7.91581395,14.099196 L7.91581395,10.1934758 C7.91581395,10.0519642 7.80381696,9.95290605 7.67782035,9.95290605 L6.90784108,9.95290605 Z M23.8753846,13.8303239 L13.8516543,13.8303239 C13.5576622,13.8303239 13.3336682,13.5897542 13.3336682,13.306731 L13.3336682,12.5284172 C13.3336682,12.2312428 13.5716618,12.0048243 13.8516543,12.0048243 L23.8753846,12.0048243 C24.1693767,12.0048243 24.3933707,12.245394 24.3933707,12.5284172 L24.3933707,13.306731 C24.3933707,13.6039054 24.1553771,13.8303239 23.8753846,13.8303239 Z M13.8516543,12.2878475 C13.711658,12.2878475 13.6136607,12.4010567 13.6136607,12.5284172 L13.6136607,13.306731 C13.6136607,13.4482426 13.7256577,13.5473007 13.8516543,13.5473007 L23.8753846,13.5473007 C24.0153809,13.5473007 24.1133782,13.4340914 24.1133782,13.306731 L24.1133782,12.5284172 C24.1133782,12.3869056 24.0013812,12.2878475 23.8753846,12.2878475 L13.8516543,12.2878475 Z" id="Shape"></path>
                </g>
            </g>
        </g>
    </g>
</svg>