<?xml version="1.0" encoding="UTF-8"?>
<svg width="30px" height="30px" viewBox="0 0 30 30" version="1.1" xmlns="http://www.w3.org/2000/svg" xmlns:xlink="http://www.w3.org/1999/xlink">
    <!-- Generator: Sketch 51.2 (57519) - http://www.bohemiancoding.com/sketch -->
    <title>wifi@2x</title>
    <desc>Created with Sketch.</desc>
    <defs></defs>
    <g id="小岛旅行商城" stroke="none" stroke-width="1" fill="none" fill-rule="evenodd">
        <g id="订单详情" transform="translate(-30.000000, -1030.000000)" fill="#F2AF00">
            <g id="Group-10" transform="translate(0.000000, 888.000000)">
                <g id="Group-5">
                    <g id="wifi" transform="translate(30.000000, 142.000000)">
                        <g id="Group">
                            <path d="M7.46924689,16.7023488 L9.13224943,18.5711 C11.6694616,13.8794647 18.3300612,13.8765734 20.8682278,18.5715819 L22.5307531,16.7023488 C18.9275014,11.2845123 11.071067,11.2874036 7.46924689,16.7023488 M15.031733,23.7210083 C13.979532,23.7210083 13.1229783,22.856506 13.1229783,21.793467 C13.1229783,20.7304281 13.979532,19.8659258 15.031733,19.8659258 C16.0844113,19.8659258 16.9404878,20.7304281 16.9404878,21.793467 C16.9404878,22.856506 16.0844113,23.7210083 15.031733,23.7210083 M15.031733,17.4564993 C12.6639228,17.4564993 10.737035,19.4023522 10.737035,21.793467 C10.737035,24.1850638 12.6639228,26.1304348 15.031733,26.1304348 C17.4000205,26.1304348 19.3264311,24.1850638 19.3264311,21.793467 C19.3264311,19.4023522 17.4000205,17.4564993 15.031733,17.4564993 M4.21768325,13.0477306 L5.83535286,14.865402 C10.4302026,8.68281354 19.5717061,8.68474108 24.1651243,14.865402 L25.7823168,13.0477306 C20.224023,6.07388649 9.77168226,6.07966912 4.21768325,13.0477306 M1,9.43118141 L2.60621709,11.2363238 C9.10361811,3.47074207 20.8911328,3.46399568 27.3942601,11.2363238 L29,9.43118141 C21.5687407,0.860369376 8.4384171,0.852177326 1,9.43118141" id="Fill-181"></path>
                        </g>
                    </g>
                </g>
            </g>
        </g>
    </g>
</svg>