<?xml version="1.0" encoding="UTF-8"?>
<svg width="90px" height="90px" viewBox="0 0 90 90" version="1.1" xmlns="http://www.w3.org/2000/svg" xmlns:xlink="http://www.w3.org/1999/xlink">
    <g id="-X-PAY" stroke="none" stroke-width="1" fill="none" fill-rule="evenodd" fill-opacity="0.8">
        <g transform="translate(-330.000000, -496.000000)" fill="#FFFFFF" fill-rule="nonzero">
            <g id="succeed" transform="translate(330.000000, 496.000000)">
                <path d="M45,0 C20.1471863,-1.52179594e-15 3.04359188e-15,20.1471863 0,45 C-3.04359188e-15,69.8528137 20.1471863,90 45,90 C69.8528137,90 90,69.8528137 90,45 C90,33.065258 85.2589422,21.6193319 76.8198052,13.1801948 C68.3806681,4.74105782 56.934742,7.30792182e-16 45,0 Z M70.6919856,31.1124402 L39.5580144,62.9246412 C39.4508135,63.0867675 39.3282372,63.2381851 39.1919856,63.3767942 C38.6189512,63.9630945 37.836394,64.2976151 37.0166173,64.3067013 C36.1968406,64.3157875 35.4070611,63.9986943 34.8211723,63.4252393 L34.7727273,63.3767942 L19.3080144,47.6698564 C18.1014732,46.4187366 18.1014732,44.4371246 19.3080144,43.1860048 C19.8812551,42.5980609 20.6649595,42.2624909 21.4860566,42.2534013 C22.3071536,42.2443116 23.0980947,42.5624501 23.6842105,43.1375598 L23.7326555,43.1860048 L36.9419856,56.5998804 L66.2781101,26.6232058 C66.8511445,26.0369055 67.6337016,25.7023849 68.4534784,25.6932987 C69.2732551,25.6842125 70.0630346,26.0013057 70.6489234,26.5747607 L70.6973684,26.6232058 C71.9073743,27.875013 71.9073743,29.860633 70.6973684,31.1124402 L70.6919856,31.1124402 Z" id="Shape"></path>
            </g>
        </g>
    </g>
</svg>
